<svg xmlns="http://www.w3.org/2000/svg" xmlns:xlink="http://www.w3.org/1999/xlink" version="1.1" class="marks" width="937" height="847" viewBox="0 0 937 847"><rect width="937" height="847" fill="white"/><g fill="none" stroke-miterlimit="10" transform="translate(48,10)"><g class="mark-group role-frame root" role="graphics-object" aria-roledescription="group mark container"><g transform="translate(0,0)"><path class="background" aria-hidden="true" d="M0.5,0.5h800v800h-800Z" stroke="#ddd"/><g><g class="mark-group role-axis" aria-hidden="true"><g transform="translate(0.5,800.5)"><path class="background" aria-hidden="true" d="M0,0h0v0h0Z" pointer-events="none"/><g><g class="mark-rule role-axis-grid" pointer-events="none"><line transform="translate(0,-800)" x2="0" y2="800" stroke="#ddd" stroke-width="1" opacity="1"/><line transform="translate(1,-800)" x2="0" y2="800" stroke="#ddd" stroke-width="1" opacity="1"/><line transform="translate(2,-800)" x2="0" y2="800" stroke="#ddd" stroke-width="1" opacity="1"/><line transform="translate(3,-800)" x2="0" y2="800" stroke="#ddd" stroke-width="1" opacity="1"/><line transform="translate(5,-800)" x2="0" y2="800" stroke="#ddd" stroke-width="1" opacity="1"/><line transform="translate(10,-800)" x2="0" y2="800" stroke="#ddd" stroke-width="1" opacity="1"/><line transform="translate(19,-800)" x2="0" y2="800" stroke="#ddd" stroke-width="1" opacity="1"/><line transform="translate(35,-800)" x2="0" y2="800" stroke="#ddd" stroke-width="1" opacity="1"/><line transform="translate(51,-800)" x2="0" y2="800" stroke="#ddd" stroke-width="1" opacity="1"/><line transform="translate(67,-800)" x2="0" y2="800" stroke="#ddd" stroke-width="1" opacity="1"/><line transform="translate(83,-800)" x2="0" y2="800" stroke="#ddd" stroke-width="1" opacity="1"/><line transform="translate(99,-800)" x2="0" y2="800" stroke="#ddd" stroke-width="1" opacity="1"/><line transform="translate(115,-800)" x2="0" y2="800" stroke="#ddd" stroke-width="1" opacity="1"/><line transform="translate(131,-800)" x2="0" y2="800" stroke="#ddd" stroke-width="1" opacity="1"/><line transform="translate(147,-800)" x2="0" y2="800" stroke="#ddd" stroke-width="1" opacity="1"/><line transform="translate(163,-800)" x2="0" y2="800" stroke="#ddd" stroke-width="1" opacity="1"/><line transform="translate(179,-800)" x2="0" y2="800" stroke="#ddd" stroke-width="1" opacity="1"/><line transform="translate(195,-800)" x2="0" y2="800" stroke="#ddd" stroke-width="1" opacity="1"/><line transform="translate(211,-800)" x2="0" y2="800" stroke="#ddd" stroke-width="1" opacity="1"/><line transform="translate(227,-800)" x2="0" y2="800" stroke="#ddd" stroke-width="1" opacity="1"/><line transform="translate(243,-800)" x2="0" y2="800" stroke="#ddd" stroke-width="1" opacity="1"/><line transform="translate(259,-800)" x2="0" y2="800" stroke="#ddd" stroke-width="1" opacity="1"/><line transform="translate(275,-800)" x2="0" y2="800" stroke="#ddd" stroke-width="1" opacity="1"/><line transform="translate(291,-800)" x2="0" y2="800" stroke="#ddd" stroke-width="1" opacity="1"/><line transform="translate(307,-800)" x2="0" y2="800" stroke="#ddd" stroke-width="1" opacity="1"/><line transform="translate(323,-800)" x2="0" y2="800" stroke="#ddd" stroke-width="1" opacity="1"/><line transform="translate(339,-800)" x2="0" y2="800" stroke="#ddd" stroke-width="1" opacity="1"/><line transform="translate(355,-800)" x2="0" y2="800" stroke="#ddd" stroke-width="1" opacity="1"/><line transform="translate(371,-800)" x2="0" y2="800" stroke="#ddd" stroke-width="1" opacity="1"/><line transform="translate(387,-800)" x2="0" y2="800" stroke="#ddd" stroke-width="1" opacity="1"/><line transform="translate(403,-800)" x2="0" y2="800" stroke="#ddd" stroke-width="1" opacity="1"/><line transform="translate(419,-800)" x2="0" y2="800" stroke="#ddd" stroke-width="1" opacity="1"/><line transform="translate(435,-800)" x2="0" y2="800" stroke="#ddd" stroke-width="1" opacity="1"/><line transform="translate(451,-800)" x2="0" y2="800" stroke="#ddd" stroke-width="1" opacity="1"/><line transform="translate(467,-800)" x2="0" y2="800" stroke="#ddd" stroke-width="1" opacity="1"/><line transform="translate(483,-800)" x2="0" y2="800" stroke="#ddd" stroke-width="1" opacity="1"/><line transform="translate(499,-800)" x2="0" y2="800" stroke="#ddd" stroke-width="1" opacity="1"/><line transform="translate(515,-800)" x2="0" y2="800" stroke="#ddd" stroke-width="1" opacity="1"/><line transform="translate(531,-800)" x2="0" y2="800" stroke="#ddd" stroke-width="1" opacity="1"/><line transform="translate(547,-800)" x2="0" y2="800" stroke="#ddd" stroke-width="1" opacity="1"/><line transform="translate(563,-800)" x2="0" y2="800" stroke="#ddd" stroke-width="1" opacity="1"/><line transform="translate(579,-800)" x2="0" y2="800" stroke="#ddd" stroke-width="1" opacity="1"/><line transform="translate(595,-800)" x2="0" y2="800" stroke="#ddd" stroke-width="1" opacity="1"/><line transform="translate(611,-800)" x2="0" y2="800" stroke="#ddd" stroke-width="1" opacity="1"/><line transform="translate(627,-800)" x2="0" y2="800" stroke="#ddd" stroke-width="1" opacity="1"/><line transform="translate(643,-800)" x2="0" y2="800" stroke="#ddd" stroke-width="1" opacity="1"/><line transform="translate(659,-800)" x2="0" y2="800" stroke="#ddd" stroke-width="1" opacity="1"/><line transform="translate(675,-800)" x2="0" y2="800" stroke="#ddd" stroke-width="1" opacity="1"/><line transform="translate(691,-800)" x2="0" y2="800" stroke="#ddd" stroke-width="1" opacity="1"/><line transform="translate(707,-800)" x2="0" y2="800" stroke="#ddd" stroke-width="1" opacity="1"/><line transform="translate(723,-800)" x2="0" y2="800" stroke="#ddd" stroke-width="1" opacity="1"/><line transform="translate(739,-800)" x2="0" y2="800" stroke="#ddd" stroke-width="1" opacity="1"/><line transform="translate(755,-800)" x2="0" y2="800" stroke="#ddd" stroke-width="1" opacity="1"/><line transform="translate(771,-800)" x2="0" y2="800" stroke="#ddd" stroke-width="1" opacity="1"/><line transform="translate(787,-800)" x2="0" y2="800" stroke="#ddd" stroke-width="1" opacity="1"/><line transform="translate(800,-800)" x2="0" y2="800" stroke="#ddd" stroke-width="1" opacity="1"/></g></g><path class="foreground" aria-hidden="true" d="" pointer-events="none" display="none"/></g></g><g class="mark-group role-axis" aria-hidden="true"><g transform="translate(0.5,0.5)"><path class="background" aria-hidden="true" d="M0,0h0v0h0Z" pointer-events="none"/><g><g class="mark-rule role-axis-grid" pointer-events="none"><line transform="translate(0,800)" x2="800" y2="0" stroke="#ddd" stroke-width="1" opacity="1"/><line transform="translate(0,768)" x2="800" y2="0" stroke="#ddd" stroke-width="1" opacity="1"/><line transform="translate(0,736)" x2="800" y2="0" stroke="#ddd" stroke-width="1" opacity="1"/><line transform="translate(0,704)" x2="800" y2="0" stroke="#ddd" stroke-width="1" opacity="1"/><line transform="translate(0,672)" x2="800" y2="0" stroke="#ddd" stroke-width="1" opacity="1"/><line transform="translate(0,640)" x2="800" y2="0" stroke="#ddd" stroke-width="1" opacity="1"/><line transform="translate(0,608)" x2="800" y2="0" stroke="#ddd" stroke-width="1" opacity="1"/><line transform="translate(0,576)" x2="800" y2="0" stroke="#ddd" stroke-width="1" opacity="1"/><line transform="translate(0,544)" x2="800" y2="0" stroke="#ddd" stroke-width="1" opacity="1"/><line transform="translate(0,512)" x2="800" y2="0" stroke="#ddd" stroke-width="1" opacity="1"/><line transform="translate(0,480)" x2="800" y2="0" stroke="#ddd" stroke-width="1" opacity="1"/><line transform="translate(0,448)" x2="800" y2="0" stroke="#ddd" stroke-width="1" opacity="1"/><line transform="translate(0,416)" x2="800" y2="0" stroke="#ddd" stroke-width="1" opacity="1"/><line transform="translate(0,384)" x2="800" y2="0" stroke="#ddd" stroke-width="1" opacity="1"/><line transform="translate(0,352)" x2="800" y2="0" stroke="#ddd" stroke-width="1" opacity="1"/><line transform="translate(0,320)" x2="800" y2="0" stroke="#ddd" stroke-width="1" opacity="1"/><line transform="translate(0,288)" x2="800" y2="0" stroke="#ddd" stroke-width="1" opacity="1"/><line transform="translate(0,256)" x2="800" y2="0" stroke="#ddd" stroke-width="1" opacity="1"/><line transform="translate(0,224)" x2="800" y2="0" stroke="#ddd" stroke-width="1" opacity="1"/><line transform="translate(0,192)" x2="800" y2="0" stroke="#ddd" stroke-width="1" opacity="1"/><line transform="translate(0,160)" x2="800" y2="0" stroke="#ddd" stroke-width="1" opacity="1"/><line transform="translate(0,128)" x2="800" y2="0" stroke="#ddd" stroke-width="1" opacity="1"/><line transform="translate(0,96)" x2="800" y2="0" stroke="#ddd" stroke-width="1" opacity="1"/><line transform="translate(0,64)" x2="800" y2="0" stroke="#ddd" stroke-width="1" opacity="1"/><line transform="translate(0,32)" x2="800" y2="0" stroke="#ddd" stroke-width="1" opacity="1"/><line transform="translate(0,0)" x2="800" y2="0" stroke="#ddd" stroke-width="1" opacity="1"/></g></g><path class="foreground" aria-hidden="true" d="" pointer-events="none" display="none"/></g></g><g class="mark-group role-axis" role="graphics-symbol" aria-roledescription="axis" aria-label="X-axis titled 'time (s)' for a linear scale with values from 0.000000000 to 0.000000005"><g transform="translate(0.5,800.5)"><path class="background" aria-hidden="true" d="M0,0h0v0h0Z" pointer-events="none"/><g><g class="mark-rule role-axis-tick" pointer-events="none"><line transform="translate(0,0)" x2="0" y2="5" stroke="#888" stroke-width="1" opacity="1"/><line transform="translate(1,0)" x2="0" y2="5" stroke="#888" stroke-width="1" opacity="1"/><line transform="translate(2,0)" x2="0" y2="5" stroke="#888" stroke-width="1" opacity="1"/><line transform="translate(3,0)" x2="0" y2="5" stroke="#888" stroke-width="1" opacity="1"/><line transform="translate(5,0)" x2="0" y2="5" stroke="#888" stroke-width="1" opacity="1"/><line transform="translate(10,0)" x2="0" y2="5" stroke="#888" stroke-width="1" opacity="1"/><line transform="translate(19,0)" x2="0" y2="5" stroke="#888" stroke-width="1" opacity="1"/><line transform="translate(35,0)" x2="0" y2="5" stroke="#888" stroke-width="1" opacity="1"/><line transform="translate(51,0)" x2="0" y2="5" stroke="#888" stroke-width="1" opacity="1"/><line transform="translate(67,0)" x2="0" y2="5" stroke="#888" stroke-width="1" opacity="1"/><line transform="translate(83,0)" x2="0" y2="5" stroke="#888" stroke-width="1" opacity="1"/><line transform="translate(99,0)" x2="0" y2="5" stroke="#888" stroke-width="1" opacity="1"/><line transform="translate(115,0)" x2="0" y2="5" stroke="#888" stroke-width="1" opacity="1"/><line transform="translate(131,0)" x2="0" y2="5" stroke="#888" stroke-width="1" opacity="1"/><line transform="translate(147,0)" x2="0" y2="5" stroke="#888" stroke-width="1" opacity="1"/><line transform="translate(163,0)" x2="0" y2="5" stroke="#888" stroke-width="1" opacity="1"/><line transform="translate(179,0)" x2="0" y2="5" stroke="#888" stroke-width="1" opacity="1"/><line transform="translate(195,0)" x2="0" y2="5" stroke="#888" stroke-width="1" opacity="1"/><line transform="translate(211,0)" x2="0" y2="5" stroke="#888" stroke-width="1" opacity="1"/><line transform="translate(227,0)" x2="0" y2="5" stroke="#888" stroke-width="1" opacity="1"/><line transform="translate(243,0)" x2="0" y2="5" stroke="#888" stroke-width="1" opacity="1"/><line transform="translate(259,0)" x2="0" y2="5" stroke="#888" stroke-width="1" opacity="1"/><line transform="translate(275,0)" x2="0" y2="5" stroke="#888" stroke-width="1" opacity="1"/><line transform="translate(291,0)" x2="0" y2="5" stroke="#888" stroke-width="1" opacity="1"/><line transform="translate(307,0)" x2="0" y2="5" stroke="#888" stroke-width="1" opacity="1"/><line transform="translate(323,0)" x2="0" y2="5" stroke="#888" stroke-width="1" opacity="1"/><line transform="translate(339,0)" x2="0" y2="5" stroke="#888" stroke-width="1" opacity="1"/><line transform="translate(355,0)" x2="0" y2="5" stroke="#888" stroke-width="1" opacity="1"/><line transform="translate(371,0)" x2="0" y2="5" stroke="#888" stroke-width="1" opacity="1"/><line transform="translate(387,0)" x2="0" y2="5" stroke="#888" stroke-width="1" opacity="1"/><line transform="translate(403,0)" x2="0" y2="5" stroke="#888" stroke-width="1" opacity="1"/><line transform="translate(419,0)" x2="0" y2="5" stroke="#888" stroke-width="1" opacity="1"/><line transform="translate(435,0)" x2="0" y2="5" stroke="#888" stroke-width="1" opacity="1"/><line transform="translate(451,0)" x2="0" y2="5" stroke="#888" stroke-width="1" opacity="1"/><line transform="translate(467,0)" x2="0" y2="5" stroke="#888" stroke-width="1" opacity="1"/><line transform="translate(483,0)" x2="0" y2="5" stroke="#888" stroke-width="1" opacity="1"/><line transform="translate(499,0)" x2="0" y2="5" stroke="#888" stroke-width="1" opacity="1"/><line transform="translate(515,0)" x2="0" y2="5" stroke="#888" stroke-width="1" opacity="1"/><line transform="translate(531,0)" x2="0" y2="5" stroke="#888" stroke-width="1" opacity="1"/><line transform="translate(547,0)" x2="0" y2="5" stroke="#888" stroke-width="1" opacity="1"/><line transform="translate(563,0)" x2="0" y2="5" stroke="#888" stroke-width="1" opacity="1"/><line transform="translate(579,0)" x2="0" y2="5" stroke="#888" stroke-width="1" opacity="1"/><line transform="translate(595,0)" x2="0" y2="5" stroke="#888" stroke-width="1" opacity="1"/><line transform="translate(611,0)" x2="0" y2="5" stroke="#888" stroke-width="1" opacity="1"/><line transform="translate(627,0)" x2="0" y2="5" stroke="#888" stroke-width="1" opacity="1"/><line transform="translate(643,0)" x2="0" y2="5" stroke="#888" stroke-width="1" opacity="1"/><line transform="translate(659,0)" x2="0" y2="5" stroke="#888" stroke-width="1" opacity="1"/><line transform="translate(675,0)" x2="0" y2="5" stroke="#888" stroke-width="1" opacity="1"/><line transform="translate(691,0)" x2="0" y2="5" stroke="#888" stroke-width="1" opacity="1"/><line transform="translate(707,0)" x2="0" y2="5" stroke="#888" stroke-width="1" opacity="1"/><line transform="translate(723,0)" x2="0" y2="5" stroke="#888" stroke-width="1" opacity="1"/><line transform="translate(739,0)" x2="0" y2="5" stroke="#888" stroke-width="1" opacity="1"/><line transform="translate(755,0)" x2="0" y2="5" stroke="#888" stroke-width="1" opacity="1"/><line transform="translate(771,0)" x2="0" y2="5" stroke="#888" stroke-width="1" opacity="1"/><line transform="translate(787,0)" x2="0" y2="5" stroke="#888" stroke-width="1" opacity="1"/><line transform="translate(800,0)" x2="0" y2="5" stroke="#888" stroke-width="1" opacity="1"/></g><g class="mark-text role-axis-label" pointer-events="none"><text text-anchor="start" transform="translate(0,15)" font-family="sans-serif" font-size="10px" fill="#000" opacity="1">0.00000000000</text><text text-anchor="start" transform="translate(0.8,15)" font-family="sans-serif" font-size="10px" fill="#000" opacity="0">0.00000000001</text><text text-anchor="middle" transform="translate(1.742204561809866,15)" font-family="sans-serif" font-size="10px" fill="#000" opacity="0">0.00000000001</text><text text-anchor="middle" transform="translate(2.9027449966885257,15)" font-family="sans-serif" font-size="10px" fill="#000" opacity="0">0.00000000002</text><text text-anchor="middle" transform="translate(5.223825866445845,15)" font-family="sans-serif" font-size="10px" fill="#000" opacity="0">0.00000000003</text><text text-anchor="middle" transform="translate(9.865987605960482,15)" font-family="sans-serif" font-size="10px" fill="#000" opacity="0">0.00000000006</text><text text-anchor="middle" transform="translate(19.150311084989756,15)" font-family="sans-serif" font-size="10px" fill="#000" opacity="0">0.00000000012</text><text text-anchor="middle" transform="translate(35.15031108498976,15)" font-family="sans-serif" font-size="10px" fill="#000" opacity="0">0.00000000022</text><text text-anchor="middle" transform="translate(51.15031108498977,15)" font-family="sans-serif" font-size="10px" fill="#000" opacity="0">0.00000000032</text><text text-anchor="middle" transform="translate(67.15031108498977,15)" font-family="sans-serif" font-size="10px" fill="#000" opacity="0">0.00000000042</text><text text-anchor="middle" transform="translate(83.15031108498977,15)" font-family="sans-serif" font-size="10px" fill="#000" opacity="0">0.00000000052</text><text text-anchor="middle" transform="translate(99.15031108498977,15)" font-family="sans-serif" font-size="10px" fill="#000" opacity="0">0.00000000062</text><text text-anchor="middle" transform="translate(115.15031108498974,15)" font-family="sans-serif" font-size="10px" fill="#000" opacity="0">0.00000000072</text><text text-anchor="middle" transform="translate(131.15031108498977,15)" font-family="sans-serif" font-size="10px" fill="#000" opacity="0">0.00000000082</text><text text-anchor="middle" transform="translate(147.15031108498974,15)" font-family="sans-serif" font-size="10px" fill="#000" opacity="0">0.00000000092</text><text text-anchor="middle" transform="translate(163.15031108498977,15)" font-family="sans-serif" font-size="10px" fill="#000" opacity="0">0.00000000102</text><text text-anchor="middle" transform="translate(179.15031108498977,15)" font-family="sans-serif" font-size="10px" fill="#000" opacity="1">0.00000000112</text><text text-anchor="middle" transform="translate(195.15031108498977,15)" font-family="sans-serif" font-size="10px" fill="#000" opacity="0">0.00000000122</text><text text-anchor="middle" transform="translate(211.1503110849898,15)" font-family="sans-serif" font-size="10px" fill="#000" opacity="0">0.00000000132</text><text text-anchor="middle" transform="translate(227.15031108498977,15)" font-family="sans-serif" font-size="10px" fill="#000" opacity="0">0.00000000142</text><text text-anchor="middle" transform="translate(243.1503110849898,15)" font-family="sans-serif" font-size="10px" fill="#000" opacity="0">0.00000000152</text><text text-anchor="middle" transform="translate(259.1503110849898,15)" font-family="sans-serif" font-size="10px" fill="#000" opacity="0">0.00000000162</text><text text-anchor="middle" transform="translate(275.1503110849898,15)" font-family="sans-serif" font-size="10px" fill="#000" opacity="0">0.00000000172</text><text text-anchor="middle" transform="translate(291.1503110849898,15)" font-family="sans-serif" font-size="10px" fill="#000" opacity="0">0.00000000182</text><text text-anchor="middle" transform="translate(307.1503110849898,15)" font-family="sans-serif" font-size="10px" fill="#000" opacity="0">0.00000000192</text><text text-anchor="middle" transform="translate(323.1503110849899,15)" font-family="sans-serif" font-size="10px" fill="#000" opacity="0">0.00000000202</text><text text-anchor="middle" transform="translate(339.1503110849899,15)" font-family="sans-serif" font-size="10px" fill="#000" opacity="0">0.00000000212</text><text text-anchor="middle" transform="translate(355.1503110849899,15)" font-family="sans-serif" font-size="10px" fill="#000" opacity="0">0.00000000222</text><text text-anchor="middle" transform="translate(371.1503110849899,15)" font-family="sans-serif" font-size="10px" fill="#000" opacity="0">0.00000000232</text><text text-anchor="middle" transform="translate(387.15031108498994,15)" font-family="sans-serif" font-size="10px" fill="#000" opacity="0">0.00000000242</text><text text-anchor="middle" transform="translate(403.1503110849899,15)" font-family="sans-serif" font-size="10px" fill="#000" opacity="0">0.00000000252</text><text text-anchor="middle" transform="translate(419.1503110849899,15)" font-family="sans-serif" font-size="10px" fill="#000" opacity="0">0.00000000262</text><text text-anchor="middle" transform="translate(435.15031108498994,15)" font-family="sans-serif" font-size="10px" fill="#000" opacity="1">0.00000000272</text><text text-anchor="middle" transform="translate(451.15031108498994,15)" font-family="sans-serif" font-size="10px" fill="#000" opacity="0">0.00000000282</text><text text-anchor="middle" transform="translate(467.15031108498994,15)" font-family="sans-serif" font-size="10px" fill="#000" opacity="0">0.00000000292</text><text text-anchor="middle" transform="translate(483.15031108498994,15)" font-family="sans-serif" font-size="10px" fill="#000" opacity="0">0.00000000302</text><text text-anchor="middle" transform="translate(499.15031108499,15)" font-family="sans-serif" font-size="10px" fill="#000" opacity="0">0.00000000312</text><text text-anchor="middle" transform="translate(515.15031108499,15)" font-family="sans-serif" font-size="10px" fill="#000" opacity="0">0.00000000322</text><text text-anchor="middle" transform="translate(531.15031108499,15)" font-family="sans-serif" font-size="10px" fill="#000" opacity="0">0.00000000332</text><text text-anchor="middle" transform="translate(547.15031108499,15)" font-family="sans-serif" font-size="10px" fill="#000" opacity="0">0.00000000342</text><text text-anchor="middle" transform="translate(563.15031108499,15)" font-family="sans-serif" font-size="10px" fill="#000" opacity="0">0.00000000352</text><text text-anchor="middle" transform="translate(579.15031108499,15)" font-family="sans-serif" font-size="10px" fill="#000" opacity="0">0.00000000362</text><text text-anchor="middle" transform="translate(595.1503110849901,15)" font-family="sans-serif" font-size="10px" fill="#000" opacity="0">0.00000000372</text><text text-anchor="middle" transform="translate(611.15031108499,15)" font-family="sans-serif" font-size="10px" fill="#000" opacity="0">0.00000000382</text><text text-anchor="middle" transform="translate(627.15031108499,15)" font-family="sans-serif" font-size="10px" fill="#000" opacity="0">0.00000000392</text><text text-anchor="middle" transform="translate(643.15031108499,15)" font-family="sans-serif" font-size="10px" fill="#000" opacity="0">0.00000000402</text><text text-anchor="middle" transform="translate(659.15031108499,15)" font-family="sans-serif" font-size="10px" fill="#000" opacity="0">0.00000000412</text><text text-anchor="middle" transform="translate(675.15031108499,15)" font-family="sans-serif" font-size="10px" fill="#000" opacity="0">0.00000000422</text><text text-anchor="middle" transform="translate(691.1503110849901,15)" font-family="sans-serif" font-size="10px" fill="#000" opacity="1">0.00000000432</text><text text-anchor="middle" transform="translate(707.1503110849901,15)" font-family="sans-serif" font-size="10px" fill="#000" opacity="0">0.00000000442</text><text text-anchor="middle" transform="translate(723.1503110849901,15)" font-family="sans-serif" font-size="10px" fill="#000" opacity="0">0.00000000452</text><text text-anchor="middle" transform="translate(739.1503110849901,15)" font-family="sans-serif" font-size="10px" fill="#000" opacity="0">0.00000000462</text><text text-anchor="middle" transform="translate(755.1503110849901,15)" font-family="sans-serif" font-size="10px" fill="#000" opacity="0">0.00000000472</text><text text-anchor="middle" transform="translate(771.1503110849901,15)" font-family="sans-serif" font-size="10px" fill="#000" opacity="0">0.00000000482</text><text text-anchor="middle" transform="translate(787.1503110849901,15)" font-family="sans-serif" font-size="10px" fill="#000" opacity="0">0.00000000492</text><text text-anchor="end" transform="translate(800,15)" font-family="sans-serif" font-size="10px" fill="#000" opacity="0">0.00000000500</text></g><g class="mark-rule role-axis-domain" pointer-events="none"><line transform="translate(0,0)" x2="800" y2="0" stroke="#888" stroke-width="1" opacity="1"/></g><g class="mark-text role-axis-title" pointer-events="none"><text text-anchor="middle" transform="translate(400,30)" font-family="sans-serif" font-size="11px" font-weight="bold" fill="#000" opacity="1">time (s)</text></g></g><path class="foreground" aria-hidden="true" d="" pointer-events="none" display="none"/></g></g><g class="mark-group role-axis" role="graphics-symbol" aria-roledescription="axis" aria-label="Y-axis titled 'O(V)' for a linear scale with values from 0.0 to 0.5"><g transform="translate(0.5,0.5)"><path class="background" aria-hidden="true" d="M0,0h0v0h0Z" pointer-events="none"/><g><g class="mark-rule role-axis-tick" pointer-events="none"><line transform="translate(0,800)" x2="-5" y2="0" stroke="#888" stroke-width="1" opacity="1"/><line transform="translate(0,768)" x2="-5" y2="0" stroke="#888" stroke-width="1" opacity="1"/><line transform="translate(0,736)" x2="-5" y2="0" stroke="#888" stroke-width="1" opacity="1"/><line transform="translate(0,704)" x2="-5" y2="0" stroke="#888" stroke-width="1" opacity="1"/><line transform="translate(0,672)" x2="-5" y2="0" stroke="#888" stroke-width="1" opacity="1"/><line transform="translate(0,640)" x2="-5" y2="0" stroke="#888" stroke-width="1" opacity="1"/><line transform="translate(0,608)" x2="-5" y2="0" stroke="#888" stroke-width="1" opacity="1"/><line transform="translate(0,576)" x2="-5" y2="0" stroke="#888" stroke-width="1" opacity="1"/><line transform="translate(0,544)" x2="-5" y2="0" stroke="#888" stroke-width="1" opacity="1"/><line transform="translate(0,512)" x2="-5" y2="0" stroke="#888" stroke-width="1" opacity="1"/><line transform="translate(0,480)" x2="-5" y2="0" stroke="#888" stroke-width="1" opacity="1"/><line transform="translate(0,448)" x2="-5" y2="0" stroke="#888" stroke-width="1" opacity="1"/><line transform="translate(0,416)" x2="-5" y2="0" stroke="#888" stroke-width="1" opacity="1"/><line transform="translate(0,384)" x2="-5" y2="0" stroke="#888" stroke-width="1" opacity="1"/><line transform="translate(0,352)" x2="-5" y2="0" stroke="#888" stroke-width="1" opacity="1"/><line transform="translate(0,320)" x2="-5" y2="0" stroke="#888" stroke-width="1" opacity="1"/><line transform="translate(0,288)" x2="-5" y2="0" stroke="#888" stroke-width="1" opacity="1"/><line transform="translate(0,256)" x2="-5" y2="0" stroke="#888" stroke-width="1" opacity="1"/><line transform="translate(0,224)" x2="-5" y2="0" stroke="#888" stroke-width="1" opacity="1"/><line transform="translate(0,192)" x2="-5" y2="0" stroke="#888" stroke-width="1" opacity="1"/><line transform="translate(0,160)" x2="-5" y2="0" stroke="#888" stroke-width="1" opacity="1"/><line transform="translate(0,128)" x2="-5" y2="0" stroke="#888" stroke-width="1" opacity="1"/><line transform="translate(0,96)" x2="-5" y2="0" stroke="#888" stroke-width="1" opacity="1"/><line transform="translate(0,64)" x2="-5" y2="0" stroke="#888" stroke-width="1" opacity="1"/><line transform="translate(0,32)" x2="-5" y2="0" stroke="#888" stroke-width="1" opacity="1"/><line transform="translate(0,0)" x2="-5" y2="0" stroke="#888" stroke-width="1" opacity="1"/></g><g class="mark-text role-axis-label" pointer-events="none"><text text-anchor="end" transform="translate(-7,803)" font-family="sans-serif" font-size="10px" fill="#000" opacity="1">0.00</text><text text-anchor="end" transform="translate(-7,771)" font-family="sans-serif" font-size="10px" fill="#000" opacity="1">0.02</text><text text-anchor="end" transform="translate(-7,739)" font-family="sans-serif" font-size="10px" fill="#000" opacity="1">0.04</text><text text-anchor="end" transform="translate(-7,707)" font-family="sans-serif" font-size="10px" fill="#000" opacity="1">0.06</text><text text-anchor="end" transform="translate(-7,675)" font-family="sans-serif" font-size="10px" fill="#000" opacity="1">0.08</text><text text-anchor="end" transform="translate(-7,643)" font-family="sans-serif" font-size="10px" fill="#000" opacity="1">0.10</text><text text-anchor="end" transform="translate(-7,611)" font-family="sans-serif" font-size="10px" fill="#000" opacity="1">0.12</text><text text-anchor="end" transform="translate(-7,579)" font-family="sans-serif" font-size="10px" fill="#000" opacity="1">0.14</text><text text-anchor="end" transform="translate(-7,547)" font-family="sans-serif" font-size="10px" fill="#000" opacity="1">0.16</text><text text-anchor="end" transform="translate(-7,515)" font-family="sans-serif" font-size="10px" fill="#000" opacity="1">0.18</text><text text-anchor="end" transform="translate(-7,483)" font-family="sans-serif" font-size="10px" fill="#000" opacity="1">0.20</text><text text-anchor="end" transform="translate(-7,451.00000000000006)" font-family="sans-serif" font-size="10px" fill="#000" opacity="1">0.22</text><text text-anchor="end" transform="translate(-7,419)" font-family="sans-serif" font-size="10px" fill="#000" opacity="1">0.24</text><text text-anchor="end" transform="translate(-7,387)" font-family="sans-serif" font-size="10px" fill="#000" opacity="1">0.26</text><text text-anchor="end" transform="translate(-7,354.99999999999994)" font-family="sans-serif" font-size="10px" fill="#000" opacity="1">0.28</text><text text-anchor="end" transform="translate(-7,323)" font-family="sans-serif" font-size="10px" fill="#000" opacity="1">0.30</text><text text-anchor="end" transform="translate(-7,291)" font-family="sans-serif" font-size="10px" fill="#000" opacity="1">0.32</text><text text-anchor="end" transform="translate(-7,259)" font-family="sans-serif" font-size="10px" fill="#000" opacity="1">0.34</text><text text-anchor="end" transform="translate(-7,227.00000000000003)" font-family="sans-serif" font-size="10px" fill="#000" opacity="1">0.36</text><text text-anchor="end" transform="translate(-7,195)" font-family="sans-serif" font-size="10px" fill="#000" opacity="1">0.38</text><text text-anchor="end" transform="translate(-7,162.99999999999997)" font-family="sans-serif" font-size="10px" fill="#000" opacity="1">0.40</text><text text-anchor="end" transform="translate(-7,131.00000000000003)" font-family="sans-serif" font-size="10px" fill="#000" opacity="1">0.42</text><text text-anchor="end" transform="translate(-7,99)" font-family="sans-serif" font-size="10px" fill="#000" opacity="1">0.44</text><text text-anchor="end" transform="translate(-7,66.99999999999997)" font-family="sans-serif" font-size="10px" fill="#000" opacity="1">0.46</text><text text-anchor="end" transform="translate(-7,35.00000000000003)" font-family="sans-serif" font-size="10px" fill="#000" opacity="1">0.48</text><text text-anchor="end" transform="translate(-7,3)" font-family="sans-serif" font-size="10px" fill="#000" opacity="1">0.50</text></g><g class="mark-rule role-axis-domain" pointer-events="none"><line transform="translate(0,800)" x2="0" y2="-800" stroke="#888" stroke-width="1" opacity="1"/></g><g class="mark-text role-axis-title" pointer-events="none"><text text-anchor="middle" transform="translate(-32,400) rotate(-90) translate(0,-2)" font-family="sans-serif" font-size="11px" font-weight="bold" fill="#000" opacity="1">O(V)</text></g></g><path class="foreground" aria-hidden="true" d="" pointer-events="none" display="none"/></g></g><g class="mark-group role-scope pathgroup" role="graphics-object" aria-roledescription="group mark container"><g transform="translate(0,0)"><path class="background" aria-hidden="true" d="M0,0h800v800h-800Z"/><g><g class="mark-line role-mark marks" role="graphics-object" aria-roledescription="line mark container"><path aria-label="Lines: undefined; time (s): 0; O(V): 9.99998000004e-7" role="graphics-symbol" aria-roledescription="line mark" d="M0,799.9984000032L0.8,792.0776237655446L1.742204561809866,782.8574752106641L2.9027449966885257,771.5825346789759L5.223825866445845,749.5163255201147L9.865987605960482,707.2504080575403L19.150311084989756,629.6727395040184L35.15031108498976,515.1867868669242L51.15031108498977,421.5164619820287L67.15031108498977,344.8771052580235L83.15031108498977,282.17217702929196L99.15031108498977,230.86814484214796L115.15031108498974,188.89211850721193L131.15031108498977,154.54809696044612L147.15031108498974,126.44844296763766L163.15031108498977,103.45781697352167L179.15031108498977,84.6473047965178L195.15031108498977,69.2568857426056L211.1503110849898,56.66472469849548L227.15031108498977,46.362047480587165L243.1503110849898,37.93258430229862L259.1503110849898,31.035750792789774L275.1503110849898,25.39288701228246L291.1503110849898,20.775998464594814L307.1503110849898,16.998544198304977L323.1503110849899,13.907899798613155L339.1503110849899,11.37919074431979L355.1503110849899,9.310246972625258L371.1503110849899,7.617474795784318L387.15031108498994,6.232479378368971L403.1503110849899,5.0993013095745L419.1503110849899,4.172155616924478L435.15031108498994,3.413581868392601L451.15031108498994,2.7929306195938253L467.15031108498994,2.2851250523950206L483.15031108498994,1.8696477701412029L499.15031108499,1.5297118119338649L515.15031108499,1.2515823915823177L531.15031108499,1.0240219567492659L547.15031108499,0.8378361464311368L563.15031108499,0.6855023016254513L579.15031108499,0.5608655195117329L595.1503110849901,0.4588899705097127L611.15031108499,0.37545543041694884L627.15031108499,0.30719080670467136L643.15031108499,0.25133793275831096L659.15031108499,0.20564012680228672L675.15031108499,0.1682510128381942L691.1503110849901,0.13765991959493462L707.1503110849901,0.11263084330499495L723.1503110849901,0.0921525081587049L739.1503110849901,0.07539750667513445L755.1503110849901,0.06168886909767579L771.1503110849901,0.05047271107985196L787.1503110849901,0.04129585451986273L800,0.03515596630387918" stroke="#4c78a8" stroke-width="2"/></g></g><path class="foreground" aria-hidden="true" d="" display="none"/></g></g><g class="mark-group role-legend" role="graphics-symbol" aria-roledescription="legend" aria-label="Symbol legend titled 'Lines' for stroke color with 1 value: undefined"><g transform="translate(820,0)"><path class="background" aria-hidden="true" d="M0,0h64v27h-64Z" pointer-events="none"/><g><g class="mark-group role-legend-entry"><g transform="translate(0,16)"><path class="background" aria-hidden="true" d="M0,0h0v0h0Z" pointer-events="none"/><g><g class="mark-group role-scope" role="graphics-object" aria-roledescription="group mark container"><g transform="translate(0,0)"><path class="background" aria-hidden="true" d="M0,0h64v11h-64Z" pointer-events="none" opacity="1"/><g><g class="mark-symbol role-legend-symbol" pointer-events="none"><path transform="translate(6,6)" d="M-5,0L5,0" stroke="#4c78a8" stroke-width="1.5" opacity="1"/></g><g class="mark-text role-legend-label" pointer-events="none"><text text-anchor="start" transform="translate(16,9)" font-family="sans-serif" font-size="10px" fill="#000" opacity="1">undefined</text></g></g><path class="foreground" aria-hidden="true" d="" pointer-events="none" display="none"/></g></g></g><path class="foreground" aria-hidden="true" d="" pointer-events="none" display="none"/></g></g><g class="mark-text role-legend-title" pointer-events="none"><text text-anchor="start" transform="translate(0,9)" font-family="sans-serif" font-size="11px" font-weight="bold" fill="#000" opacity="1">Lines</text></g></g><path class="foreground" aria-hidden="true" d="" pointer-events="none" display="none"/></g></g></g><path class="foreground" aria-hidden="true" d="" display="none"/></g></g></g></svg>